HIERARCHY
ROOT pelvis
{
  OFFSET 0 100 0
  CHANNELS 6 Xposition Yposition Zposition Zrotation Xrotation Yrotation
  JOINT pelvis_right_femur
  {
    OFFSET -10.78128 -3.44521 -0.5502486
    CHANNELS 3 Zrotation Xrotation Yrotation
    JOINT right_femur_tibia
    {
      OFFSET -0.8047443 -44.0398 -0.1307829
      CHANNELS 3 Zrotation Xrotation Yrotation
      JOINT right_tibia_foot
      {
        OFFSET 3.006224 -47.83518 -5
        CHANNELS 3 Zrotation Xrotation Yrotation
        End Site
        {
          OFFSET 0 -5 15
        }
      }
    }
  }
  JOINT pelvis_left_femur
  {
    OFFSET 10.78128 -3.44521 -0.5502486
    CHANNELS 3 Zrotation Xrotation Yrotation
    JOINT left_femur_tibia
    {
      OFFSET 0.8047443 -44.0398 -0.1307829
      CHANNELS 3 Zrotation Xrotation Yrotation
      JOINT left_tibia_foot
      {
        OFFSET -4.370144 -48.10324 -4.275266
        CHANNELS 3 Zrotation Xrotation Yrotation
        End Site
        {
          OFFSET 0 -5 15
        }
      }
    }
  }
  JOINT pelvis_spine1
  {
    OFFSET 0 6.468898 -3.129235
    CHANNELS 3 Zrotation Xrotation Yrotation
    JOINT spine1
    {
      OFFSET 0 23.15396 4.99043
      CHANNELS 3 Zrotation Xrotation Yrotation
      JOINT spine2
      {
        OFFSET 0 20.79997 -5.064912
        CHANNELS 3 Zrotation Xrotation Yrotation
        JOINT neck
        {
          OFFSET 0 14.38658 9.616178
          CHANNELS 3 Zrotation Xrotation Yrotation
          End Site
          {
            OFFSET 0 20 0
          }
        }
      }
      JOINT right_manubrium
      {
        OFFSET -5.722621 16.35077 3.967754
        CHANNELS 3 Zrotation Xrotation Yrotation
        JOINT right_clavicle
        {
          OFFSET -13.16364 1.694482 -4.693211
          CHANNELS 3 Zrotation Xrotation Yrotation
          JOINT right_humerus
          {
            OFFSET -28.5034 -0.3100689 -2.792744
            CHANNELS 3 Zrotation Xrotation Yrotation
            JOINT right_radius
            {
              OFFSET -25.15693 0.02248979 -1.271978
              CHANNELS 3 Zrotation Xrotation Yrotation
              End Site
              {
                OFFSET -15 0 0
              }
            }
          }
        }
      }
      JOINT left_manubrium
      {
        OFFSET 5.722621 16.35077 3.967754
        CHANNELS 3 Zrotation Xrotation Yrotation
        JOINT left_clavicle
        {
          OFFSET 13.16364 1.694482 -4.693211
          CHANNELS 3 Zrotation Xrotation Yrotation
          JOINT left_humerus
          {
            OFFSET 29.39168 -1.063119 -2.237045
            CHANNELS 3 Zrotation Xrotation Yrotation
            JOINT left_radius
            {
              OFFSET 24.59957 -0.9528479 0.9047498
              CHANNELS 3 Zrotation Xrotation Yrotation
              End Site
              {
                OFFSET 15 -0 -0
              }
            }
          }
        }
      }
    }
  }
}
MOTION
Frames: 15
Frame Time: 0.0416666666667
-801.8475 116.2429 2625.462 -5.004296 -9.573071 -25.17258 3.836199 -5.759533 -3.757865 -0 16.49692 -0 -10.90299 -4.045116 -3.686165 -2.02228 2.251831 -7.770248 -0 20.01595 -0 -4.391846 -13.52574 16.27551 0.2240367 1.575418 1.927594 0.3666916 9.363531 -4.443702 2.60142 26.14908 4.037068 0.6101702 -18.21409 7.605779 -4.85317 -18.76694 10.03602 93.65438 14.19158 -14.09146 -0 0 8.85312 -20.9825 7.103916 10.05809 5.737418 -20.74667 -6.398885 -89.059 22.54084 13.54447 0 0 -13.44889 6.58307 17.06654 4.625705
-804.3305 116.2174 2630.412 -5.010252 -9.569975 -25.20841 3.8362 -5.759552 -3.757873 -0 16.49688 -0 -10.90299 -4.045115 -3.686163 -2.022283 2.25185 -7.770247 -0 20.01598 -0 -4.391845 -13.52575 16.2755 0.2240366 1.575415 1.927594 0.3666928 9.363532 -4.443704 2.60142 26.14909 4.037068 0.6101712 -18.21409 7.605777 -4.853172 -18.76694 10.03602 93.65439 14.19158 -14.09148 -0 0 8.853103 -20.98249 7.103914 10.05809 5.73742 -20.74668 -6.398888 -89.05899 22.54085 13.54446 0 0 -13.44891 6.583078 17.06655 4.625695
-806.8167 116.1919 2635.361 -5.016206 -9.566876 -25.24424 3.836202 -5.759564 -3.757879 -0 16.49685 -0 -10.903 -4.045118 -3.686161 -2.022285 2.251862 -7.770246 -0 20.01601 -0 -4.391846 -13.52575 16.2755 0.2240367 1.575412 1.927594 0.3666937 9.363532 -4.443705 2.60142 26.14909 4.037067 0.6101717 -18.21409 7.605776 -4.853173 -18.76693 10.03602 93.6544 14.19157 -14.09149 -0 0 8.853089 -20.98249 7.103913 10.05808 5.737421 -20.74669 -6.398891 -89.05899 22.54085 13.54445 0 0 -13.44893 6.583084 17.06656 4.625687
-809.3059 116.1664 2640.308 -5.022159 -9.563773 -25.28008 3.836205 -5.759569 -3.757884 -0 16.49682 -0 -10.903 -4.045126 -3.68616 -2.022285 2.251867 -7.770245 -0 20.01604 -0 -4.391847 -13.52575 16.2755 0.2240371 1.57541 1.927595 0.3666945 9.363532 -4.443706 2.60142 26.14909 4.037066 0.6101717 -18.21409 7.605774 -4.853175 -18.76693 10.03603 93.6544 14.19157 -14.0915 -0 0 8.853078 -20.98249 7.103913 10.05807 5.737422 -20.7467 -6.398892 -89.05898 22.54085 13.54444 0 0 -13.44894 6.583087 17.06657 4.625682
-811.7981 116.1408 2645.253 -5.02811 -9.560667 -25.31591 3.836209 -5.759568 -3.757887 -0 16.49678 -0 -10.90301 -4.045137 -3.68616 -2.022285 2.251867 -7.770244 -0 20.01607 -0 -4.391849 -13.52575 16.2755 0.2240377 1.575408 1.927597 0.3666951 9.363531 -4.443707 2.60142 26.14909 4.037064 0.6101713 -18.21409 7.605773 -4.853177 -18.76693 10.03603 93.65441 14.19157 -14.09151 -0 0 8.853071 -20.98248 7.103913 10.05806 5.737423 -20.7467 -6.398892 -89.05898 22.54086 13.54444 0 0 -13.44895 6.583088 17.06657 4.62568
-814.2934 116.1153 2650.197 -5.034059 -9.557556 -25.35174 3.836214 -5.75956 -3.757888 -0 16.49675 -0 -10.90301 -4.045153 -3.686161 -2.022283 2.251861 -7.770242 -0 20.0161 -0 -4.391851 -13.52574 16.2755 0.2240384 1.575406 1.927599 0.3666954 9.36353 -4.443706 2.601421 26.1491 4.037062 0.6101704 -18.21409 7.605771 -4.853179 -18.76692 10.03603 93.65441 14.19157 -14.09151 -0 0 8.853069 -20.98248 7.103915 10.05806 5.737424 -20.7467 -6.398892 -89.05899 22.54086 13.54444 0 0 -13.44896 6.583087 17.06658 4.62568
-816.7918 116.0898 2655.139 -5.040007 -9.554442 -25.38757 3.836218 -5.759547 -3.757888 -0 16.49672 -0 -10.90301 -4.04517 -3.686163 -2.022281 2.251849 -7.770241 -0 20.01612 -0 -4.391854 -13.52574 16.2755 0.2240393 1.575405 1.927602 0.3666956 9.363529 -4.443706 2.601421 26.1491 4.037059 0.6101692 -18.21408 7.60577 -4.853181 -18.76692 10.03602 93.65441 14.19157 -14.09151 -0 0 8.85307 -20.98247 7.103916 10.05805 5.737424 -20.7467 -6.39889 -89.05899 22.54087 13.54444 0 0 -13.44896 6.583084 17.06658 4.625683
-819.2932 116.0643 2660.08 -5.045954 -9.551324 -25.4234 3.836223 -5.759529 -3.757886 -0 16.4967 -0 -10.90301 -4.04519 -3.686165 -2.022277 2.251833 -7.770239 -0 20.01614 -0 -4.391858 -13.52573 16.2755 0.2240403 1.575404 1.927605 0.3666955 9.363527 -4.443704 2.601422 26.1491 4.037056 0.6101677 -18.21408 7.605769 -4.853182 -18.76693 10.03602 93.65441 14.19157 -14.09151 -0 0 8.853075 -20.98247 7.103918 10.05805 5.737423 -20.7467 -6.398888 -89.05899 22.54087 13.54445 0 0 -13.44896 6.583078 17.06658 4.625688
-821.7977 116.0388 2665.019 -5.051899 -9.548201 -25.45924 3.836228 -5.759507 -3.757882 -0 16.49668 -0 -10.90301 -4.045211 -3.686168 -2.022273 2.251812 -7.770238 -0 20.01615 -0 -4.391862 -13.52572 16.2755 0.2240413 1.575403 1.927608 0.3666952 9.363525 -4.443703 2.601423 26.1491 4.037053 0.610166 -18.21408 7.605768 -4.853183 -18.76693 10.03602 93.6544 14.19158 -14.0915 -0 0 8.853083 -20.98246 7.103921 10.05805 5.737422 -20.74669 -6.398885 -89.059 22.54088 13.54446 0 0 -13.44895 6.583072 17.06658 4.625696
-824.3053 116.0133 2669.957 -5.057842 -9.545076 -25.49507 3.836233 -5.759482 -3.757877 -0 16.49667 -0 -10.90301 -4.045231 -3.686172 -2.022268 2.25179 -7.770237 -0 20.01616 -0 -4.391865 -13.52571 16.27551 0.2240424 1.575404 1.927612 0.3666947 9.363523 -4.443701 2.601424 26.1491 4.037051 0.6101641 -18.21408 7.605767 -4.853184 -18.76693 10.03602 93.6544 14.19158 -14.0915 -0 0 8.853094 -20.98246 7.103924 10.05805 5.737421 -20.74669 -6.398882 -89.059 22.54088 13.54447 0 0 -13.44895 6.583064 17.06658 4.625705
-826.8159 115.9878 2674.893 -5.063783 -9.541946 -25.5309 3.836237 -5.759456 -3.757871 -0 16.49666 -0 -10.90301 -4.045251 -3.686175 -2.022264 2.251765 -7.770235 -0 20.01617 -0 -4.391869 -13.5257 16.27551 0.2240434 1.575404 1.927615 0.3666941 9.363522 -4.443699 2.601425 26.1491 4.037048 0.6101622 -18.21408 7.605767 -4.853185 -18.76694 10.03602 93.65439 14.19158 -14.09149 -0 0 8.853108 -20.98245 7.103927 10.05805 5.73742 -20.74668 -6.398878 -89.05901 22.54088 13.54448 0 0 -13.44893 6.583055 17.06658 4.625715
-829.3296 115.9622 2679.828 -5.069723 -9.538813 -25.56674 3.836241 -5.759429 -3.757864 -0 16.49666 -0 -10.90301 -4.045269 -3.686179 -2.022259 2.25174 -7.770235 -0 20.01617 -0 -4.391872 -13.52569 16.27551 0.2240443 1.575405 1.927618 0.3666933 9.36352 -4.443696 2.601426 26.14909 4.037046 0.6101603 -18.21407 7.605767 -4.853185 -18.76694 10.03602 93.65438 14.19159 -14.09148 -0 0 8.853123 -20.98245 7.103929 10.05805 5.737418 -20.74667 -6.398873 -89.05902 22.54089 13.54449 0 0 -13.44892 6.583045 17.06657 4.625725
-831.8463 115.9367 2684.761 -5.075661 -9.535676 -25.60257 3.836244 -5.759402 -3.757856 -0 16.49666 -0 -10.903 -4.045285 -3.686182 -2.022254 2.251714 -7.770234 -0 20.01616 -0 -4.391875 -13.52568 16.27552 0.2240451 1.575407 1.92762 0.3666925 9.363518 -4.443694 2.601427 26.14909 4.037044 0.6101585 -18.21407 7.605767 -4.853185 -18.76695 10.03602 93.65438 14.19159 -14.09146 -0 0 8.853139 -20.98245 7.103932 10.05805 5.737417 -20.74667 -6.398869 -89.05902 22.54089 13.54451 0 0 -13.4489 6.583036 17.06657 4.625736
-834.3661 115.9112 2689.692 -5.081597 -9.532535 -25.6384 3.836246 -5.759377 -3.757849 -0 16.49667 -0 -10.903 -4.045299 -3.686185 -2.022249 2.251691 -7.770233 -0 20.01615 -0 -4.391878 -13.52567 16.27552 0.2240458 1.575409 1.927622 0.3666916 9.363517 -4.443692 2.601428 26.14909 4.037042 0.6101568 -18.21407 7.605767 -4.853184 -18.76695 10.03601 93.65437 14.1916 -14.09145 -0 0 8.853155 -20.98245 7.103935 10.05806 5.737415 -20.74666 -6.398865 -89.05903 22.54089 13.54452 0 0 -13.44889 6.583027 17.06656 4.625747
-836.8889 115.8857 2694.622 -5.087531 -9.529391 -25.67423 3.836248 -5.759354 -3.757842 -0 16.49668 -0 -10.90299 -4.045309 -3.686188 -2.022245 2.251669 -7.770233 -0 20.01614 -0 -4.39188 -13.52566 16.27553 0.2240464 1.575411 1.927624 0.3666906 9.363515 -4.44369 2.601429 26.14909 4.037041 0.6101554 -18.21407 7.605768 -4.853184 -18.76696 10.03601 93.65436 14.1916 -14.09144 -0 0 8.853171 -20.98245 7.103937 10.05806 5.737413 -20.74665 -6.398862 -89.05904 22.5409 13.54453 0 0 -13.44887 6.583018 17.06655 4.625757
